<?xml version="1.0" standalone="no"?>
<!DOCTYPE svg PUBLIC "-//W3C//DTD SVG 20010904//EN"
 "http://www.w3.org/TR/2001/REC-SVG-20010904/DTD/svg10.dtd">
<svg version="1.0" xmlns="http://www.w3.org/2000/svg"
 width="1200.000000pt" height="1200.000000pt" viewBox="0 0 1200.000000 1200.000000"
 preserveAspectRatio="xMidYMid meet">

<g transform="translate(0.000000,1200.000000) scale(0.100000,-0.100000)"
fill="#000000" stroke="none">
<path d="M3870 6000 c0 -856 2 -970 15 -970 13 0 15 114 15 970 0 856 -2 970
-15 970 -13 0 -15 -114 -15 -970z"/>
<path d="M3185 6536 c-32 -32 -58 -86 -86 -176 -18 -60 -23 -99 -24 -190 0
-147 15 -205 63 -233 l34 -20 -6 -66 c-4 -36 -13 -165 -22 -286 l-15 -220 26
-22 c32 -28 79 -29 105 -3 26 26 26 32 -5 660 -14 278 -25 522 -25 543 0 43
-11 46 -45 13z"/>
<path d="M9655 6520 c-16 -4 -63 -8 -102 -9 -74 -1 -96 -14 -44 -26 16 -3 37
-15 47 -27 18 -19 19 -48 22 -469 l3 -449 -25 -25 c-14 -14 -37 -25 -51 -25
-14 0 -25 -6 -25 -12 0 -10 38 -13 155 -13 117 0 155 3 155 13 0 6 -9 12 -20
12 -12 0 -32 11 -46 25 l-26 26 4 222 3 222 29 53 c37 67 92 102 159 102 102
0 117 -48 116 -359 0 -238 -7 -271 -56 -286 -71 -20 -33 -30 122 -30 117 0
155 3 155 13 0 6 -11 12 -24 12 -14 0 -38 11 -53 24 l-28 24 -5 270 c-5 253
-6 272 -26 298 -38 51 -70 68 -138 72 -106 7 -176 -26 -227 -106 l-29 -46 0
252 c0 139 -3 251 -7 251 -5 -1 -21 -5 -38 -9z"/>
<path d="M4590 6411 c0 -5 18 -12 40 -16 72 -12 70 -1 70 -450 0 -448 2 -436
-70 -455 -74 -20 -43 -30 91 -30 99 0 130 3 127 12 -3 7 -24 16 -47 21 -71 14
-72 17 -69 459 l3 382 171 -439 c94 -241 175 -440 180 -442 6 -2 84 196 175
439 l164 443 3 -390 c2 -275 -1 -398 -9 -418 -11 -25 -22 -31 -73 -39 -11 -2
-21 -9 -24 -15 -3 -10 35 -13 167 -13 145 0 171 2 171 15 0 10 -10 15 -29 15
-16 0 -39 9 -52 19 l-24 19 0 415 c0 326 3 417 13 430 7 8 31 18 53 22 79 14
38 26 -78 23 l-116 -3 -145 -388 c-80 -214 -148 -385 -152 -380 -4 4 -72 180
-151 390 l-144 383 -122 0 c-68 0 -123 -4 -123 -9z"/>
<path d="M1756 6403 c-3 -4 -6 -82 -6 -174 0 -175 2 -182 47 -208 16 -8 16
-29 -1 -282 -10 -151 -20 -301 -23 -335 -5 -55 -3 -63 18 -82 36 -35 111 -22
125 20 3 11 -4 165 -16 343 l-23 324 32 26 31 27 0 167 c0 92 -3 171 -7 174
-3 4 -12 2 -20 -4 -9 -8 -13 -42 -13 -125 0 -95 -3 -114 -15 -114 -12 0 -15
19 -15 114 0 88 -3 116 -15 126 -21 18 -24 4 -27 -125 -3 -95 -5 -110 -20
-113 -16 -3 -18 8 -18 116 0 94 -3 121 -14 125 -8 3 -17 3 -20 0z"/>
<path d="M7803 6377 l-52 -8 -3 -102 -3 -102 -62 -3 c-35 -2 -63 -7 -63 -12 0
-5 28 -10 63 -12 l62 -3 5 -290 c5 -276 6 -292 27 -325 32 -51 70 -70 143 -70
81 0 120 23 154 92 14 29 26 59 26 68 0 38 -16 27 -41 -29 -32 -70 -71 -97
-125 -86 -60 11 -62 19 -66 345 l-3 295 103 3 c56 1 102 7 102 12 0 5 -46 11
-102 12 l-103 3 -5 110 -5 110 -52 -8z"/>
<path d="M2411 6359 c-91 -15 -197 -73 -272 -148 -212 -213 -213 -540 -2 -750
172 -172 408 -207 627 -94 194 102 312 332 277 544 -49 302 -326 498 -630 448z
m282 -136 c153 -72 247 -219 247 -388 0 -171 -92 -314 -250 -389 -53 -24 -81
-31 -153 -34 -140 -7 -233 27 -326 119 -223 222 -136 606 162 710 40 14 75 18
152 16 88 -2 108 -6 168 -34z"/>
<path d="M2383 6212 c-140 -50 -239 -170 -263 -319 -28 -169 70 -347 230 -421
71 -33 200 -42 278 -19 130 39 240 155 272 286 43 182 -49 374 -218 454 -57
27 -80 32 -157 35 -67 2 -103 -2 -142 -16z"/>
<path d="M5964 6164 c-201 -72 -272 -442 -119 -622 92 -106 275 -131 385 -51
36 27 100 110 100 131 0 19 -31 6 -44 -19 -49 -95 -188 -134 -272 -77 -49 33
-59 46 -91 113 -20 42 -27 75 -31 148 l-5 93 217 0 216 0 0 43 c0 112 -68 218
-156 245 -54 16 -149 14 -200 -4z m147 -20 c38 -19 74 -96 84 -176 l6 -58
-154 0 -154 0 8 48 c20 104 55 162 114 188 40 18 60 17 96 -2z"/>
<path d="M6575 6161 c-111 -50 -138 -177 -58 -270 20 -23 81 -73 137 -111 55
-37 111 -79 124 -92 50 -55 47 -142 -8 -190 -25 -23 -40 -28 -84 -28 -95 0
-152 62 -177 192 -7 37 -17 58 -25 58 -11 0 -14 -27 -14 -135 0 -113 2 -135
15 -135 8 0 15 9 15 19 0 32 19 35 68 8 92 -50 212 -44 292 14 95 69 94 205
-2 295 -18 17 -80 63 -138 101 -127 85 -141 100 -147 156 -5 39 -1 48 25 78
28 31 35 34 89 34 45 -1 66 -6 91 -24 34 -24 75 -94 87 -148 3 -19 13 -33 21
-33 11 0 14 22 14 116 0 88 -3 115 -12 112 -7 -3 -15 -13 -16 -24 -7 -36 -20
-36 -83 -5 -74 37 -150 41 -214 12z"/>
<path d="M7185 6161 c-111 -50 -138 -177 -58 -270 20 -23 81 -73 137 -111 55
-37 111 -79 124 -92 50 -55 47 -142 -8 -190 -25 -23 -40 -28 -84 -28 -95 0
-152 62 -177 192 -7 37 -17 58 -25 58 -11 0 -14 -27 -14 -135 0 -113 2 -135
15 -135 8 0 15 9 15 19 0 32 19 35 68 8 92 -50 212 -44 292 14 95 69 94 205
-2 295 -18 17 -80 63 -138 101 -127 85 -141 100 -147 156 -5 39 -1 48 25 78
28 31 35 34 89 34 45 -1 66 -6 91 -24 34 -24 75 -94 87 -148 3 -19 13 -33 21
-33 11 0 14 22 14 116 0 88 -3 115 -12 112 -7 -3 -15 -13 -16 -24 -7 -36 -20
-36 -83 -5 -74 37 -150 41 -214 12z"/>
<path d="M8365 6168 c-127 -45 -205 -182 -205 -364 0 -162 66 -284 181 -334
44 -18 66 -21 140 -18 78 3 92 6 130 33 47 33 109 108 109 131 0 8 -7 14 -15
14 -8 0 -15 -4 -15 -10 0 -22 -74 -90 -116 -106 -98 -37 -195 6 -249 111 -27
54 -30 67 -30 159 l0 101 213 3 c151 2 212 6 212 14 0 6 -5 40 -11 74 -23 135
-107 205 -243 203 -39 0 -84 -5 -101 -11z m144 -23 c39 -20 70 -88 78 -169 l6
-66 -153 0 -152 0 6 48 c4 26 19 72 34 102 44 88 113 121 181 85z"/>
<path d="M9057 6165 c-88 -33 -161 -120 -192 -229 -25 -87 -17 -233 17 -308
35 -75 88 -131 150 -158 42 -18 66 -21 133 -18 71 3 87 7 123 32 45 31 102
108 102 138 0 27 -12 21 -45 -25 -99 -136 -257 -128 -330 17 -26 54 -30 71
-33 181 -6 176 25 283 99 335 54 39 143 39 193 -1 l26 -20 -30 -26 c-39 -32
-40 -73 -4 -102 32 -25 61 -27 92 -5 17 12 22 25 22 58 0 56 -27 91 -94 122
-60 28 -166 32 -229 9z"/>
</g>
</svg>
